<svg stroke="currentColor" fill="none" stroke-width="0" xmlns="http://www.w3.org/2000/svg" viewBox="0 0 24 24" width="24" height="24"><path fill-rule="evenodd" clip-rule="evenodd" d="M9.52381 1.99594C10.3597 1.52688 11.1339 1.25 12 1.25C12.8661 1.25 13.6403 1.52688 14.4762 1.99594C15.2861 2.45043 16.2141 3.12145 17.3811 3.96522L18.8902 5.05633C19.8267 5.73347 20.5747 6.2743 21.1389 6.77487C21.7215 7.29173 22.1573 7.807 22.4337 8.45513C22.7108 9.10469 22.7778 9.77045 22.7406 10.5381C22.7047 11.2789 22.5674 12.1726 22.3961 13.2871L22.0808 15.3387C21.8374 16.9225 21.6437 18.1837 21.359 19.1662C21.0646 20.1821 20.6499 20.9887 19.9086 21.6052C19.1704 22.2192 18.2911 22.4926 17.2169 22.6231C16.172 22.75 14.8539 22.75 13.1889 22.75H10.8111C9.14615 22.75 7.828 22.75 6.78306 22.6231C5.7089 22.4926 4.82957 22.2192 4.0914 21.6052C3.35016 20.9887 2.93544 20.1821 2.64105 19.1662C2.35635 18.1836 2.16256 16.9225 1.91918 15.3387L1.60393 13.2872C1.43264 12.1727 1.29528 11.2789 1.25941 10.5381C1.22225 9.77045 1.28925 9.10469 1.5663 8.45513C1.84274 7.807 2.27855 7.29173 2.86109 6.77487C3.42528 6.27429 4.1733 5.73346 5.10984 5.05632L6.61887 3.96524C7.78586 3.12145 8.7139 2.45043 9.52381 1.99594ZM10 17C9.44772 17 9 17.4477 9 18C9 18.5523 9.44772 19 10 19H14C14.5523 19 15 18.5523 15 18C15 17.4477 14.5523 17 14 17H10Z" fill="currentColor"></path></svg>